PathFileType	4	(X/Y/Z)	/Users/niels/Desktop/University/Third Semester/Perception and Action/Exam/Gymnastics Motion Tracking/Code for Gym Tracking/Analyzed Data/Webcam_Backflip/id5_1_trajectory_Sports2D/id5_1_trajectory_Sports2D_px_person00.trc
DataRate	CameraRate	NumFrames	NumMarkers	Units	OrigDataRate	OrigDataStartFrame	OrigNumFrames
29.81132075471698	29.81132075471698	12	22	m	29.81132075471698	59	159
Frame#	Time	Hip			RHip			RKnee			RAnkle			RBigToe			RSmallToe			RHeel			LHip			LKnee			LAnkle			LBigToe			LSmallToe			LHeel			Neck			Head			Nose			RShoulder			RElbow			RWrist			LShoulder			LElbow			LWrist		
		X1	Y1	Z1	X2	Y2	Z2	X3	Y3	Z3	X4	Y4	Z4	X5	Y5	Z5	X6	Y6	Z6	X7	Y7	Z7	X8	Y8	Z8	X9	Y9	Z9	X10	Y10	Z10	X11	Y11	Z11	X12	Y12	Z12	X13	Y13	Z13	X14	Y14	Z14	X15	Y15	Z15	X16	Y16	Z16	X17	Y17	Z17	X18	Y18	Z18	X19	Y19	Z19	X20	Y20	Z20	X21	Y21	Z21	X22	Y22	Z22
59	1.9791139240506328	0.7922184249905614	-0.5432048672654111	0.0	0.7939116394268968	-0.5443256280793165	0.0	0.8122953439742667	-0.6622661143851774	0.0	0.7692105079860253	-0.7647956308746001	0.0	0.798212290739678	-0.7982210130996523	0.0	0.7908236851431568	-0.7994715232551691	0.0	0.7545960767154559	-0.777276714158623	0.0	0.7920901026389462	-0.5412485401772307	0.0	0.7974342261237782	-0.6556810312433582	0.0	0.7530312085077024	-0.7493846156902937	0.0	0.7831123896069365	-0.785011062186396	0.0	0.7740757178202576	-0.7758625734428771	0.0	0.736837186436265	-0.7584229612123519	0.0	0.89488406935433	-0.46864397594530816	0.0	0.963240492574502	-0.46083582558063796	0.0	0.9336699027865302	-0.4844493018261454	0.0	0.8838523874421627	-0.477009486516813	0.0	0.8847291078350296	-0.5201490168565083	0.0	0.9281744731118143	-0.5374497816001201	0.0	0.8861998989362213	-0.45432300470159453	0.0	0.9037995033606745	-0.4594517713182202	0.0	0.9755204239057575	-0.41746262062180084	0.0
60	2.0126582278481013	0.7894413744010396	-0.585845856283375	0.0	0.7917897294404326	-0.586783776945562	0.0	0.8125509573825204	-0.7022681145890423	0.0	0.7750567061863552	-0.8074717116022234	0.0	0.806581965630257	-0.8371610918178276	0.0	0.799344349188847	-0.8388814137586251	0.0	0.7610821646127874	-0.8222431240856201	0.0	0.7871534888323171	-0.5843456788605204	0.0	0.7945418322356934	-0.6971257231606311	0.0	0.753149966027647	-0.7923552423893037	0.0	0.7891114371258304	-0.8267475051992356	0.0	0.7764749779907135	-0.8156096545802117	0.0	0.7405088757273789	-0.801504455316662	0.0	0.8753518597172238	-0.4835798895335932	0.0	0.9391199079105255	-0.45853457624920474	0.0	0.9164512355541968	-0.48979046235430046	0.0	0.8665642750755369	-0.49346562645767367	0.0	0.8917001261347729	-0.5331591512911514	0.0	0.9433845583770784	-0.528162676762798	0.0	0.863158908865283	-0.47373083991976156	0.0	0.8889444298728704	-0.48699736938654464	0.0	0.9592709587117898	-0.43301880521684183	0.0
61	2.0462025316455694	0.7880978211773486	-0.6210908236533879	0.0	0.7904196783989218	-0.6219758850170851	0.0	0.8132286759188567	-0.7346696536321553	0.0	0.7771395749070272	-0.8373981205379354	0.0	0.8098292882554259	-0.8645401115076902	0.0	0.8023045665406124	-0.86628304224354	0.0	0.7633884066858366	-0.8533141595790484	0.0	0.7851105330145965	-0.6201560173385376	0.0	0.7932704296119711	-0.7304820749842851	0.0	0.7524159888796379	-0.8228653374438514	0.0	0.7915767131359518	-0.8576292422667351	0.0	0.7765856999867434	-0.8459139319198944	0.0	0.7419846665928885	-0.8311550874119669	0.0	0.8563206560473404	-0.4996287368179904	0.0	0.9134662612988174	-0.45947436858358826	0.0	0.8983371200093037	-0.49721015895830806	0.0	0.8487863701470781	-0.5095780087904768	0.0	0.8931191500033179	-0.5427616428049716	0.0	0.9481563339211928	-0.5173398489850284	0.0	0.8424859488846689	-0.49539575858010954	0.0	0.8765181943788596	-0.515461351045102	0.0	0.9441960247634321	-0.4543741359130055	0.0
62	2.079746835443038	0.7874145568418313	-0.6459337715728953	0.0	0.7895367442598039	-0.6467994845839596	0.0	0.8147541398207991	-0.7564997418945845	0.0	0.7766295190386886	-0.854914329904133	0.0	0.8092595554450244	-0.8798540875282853	0.0	0.8012248989446759	-0.8815622057992508	0.0	0.7627949958206967	-0.8708071058520868	0.0	0.7847827802401106	-0.6455030310241269	0.0	0.7936474199738199	-0.7529523775976708	0.0	0.751126119807101	-0.840835733254261	0.0	0.791098962352103	-0.8760820167615184	0.0	0.7758004552953971	-0.8654314198766837	0.0	0.7415472653147206	-0.8479810725419666	0.0	0.8395150351391405	-0.5130433324605675	0.0	0.8897580470751745	-0.46162302155512813	0.0	0.8814462555492232	-0.5041179486395203	0.0	0.832328058896534	-0.5222259652102378	0.0	0.88816938500098	-0.5500684168839991	0.0	0.9435631324247352	-0.5110054016188158	0.0	0.8258544474656444	-0.5144239495750023	0.0	0.8683267183566182	-0.539937433171199	0.0	0.9312597617984378	-0.4787816840389754	0.0
63	2.113291139240506	0.7872610431494383	-0.6586611343407391	0.0	0.7892883298911991	-0.6594229803425133	0.0	0.8171955624594724	-0.7660393099072238	0.0	0.774880941047576	-0.8607998913885154	0.0	0.8066104922693494	-0.8832453304104648	0.0	0.798065684689075	-0.8851599078476714	0.0	0.7608987903739012	-0.8753332534380073	0.0	0.7854970144450513	-0.6584832072672337	0.0	0.7955002024087777	-0.7629336652640436	0.0	0.749662251798599	-0.846696453056617	0.0	0.7885149398134612	-0.8813409498097735	0.0	0.7747643991828994	-0.8722561814054707	0.0	0.7398850785922462	-0.8529805923945335	0.0	0.8259963736172861	-0.5200667890517157	0.0	0.8703471528404669	-0.4618399632529513	0.0	0.8673164344834946	-0.5070495429937835	0.0	0.8185300825456138	-0.5285943381678387	0.0	0.8771926346771641	-0.5556462009527338	0.0	0.9321629614965262	-0.5128850161916816	0.0	0.8136633990667413	-0.5260761542152836	0.0	0.8621434067259377	-0.5571355590254145	0.0	0.9199012059487037	-0.503727220207604	0.0
64	2.1468354430379746	0.7879109069664644	-0.6590364259399294	0.0	0.7898993025605404	-0.6595162542621301	0.0	0.8201807874344472	-0.7632796333755348	0.0	0.772972979732532	-0.856201629272654	0.0	0.8036343756664411	-0.8758171742816747	0.0	0.7947388843728218	-0.8782005463643033	0.0	0.758989595744237	-0.8684591354530238	0.0	0.787134581810711	-0.6587469277700404	0.0	0.7985297699456251	-0.7604605330542261	0.0	0.7484443622391763	-0.8413417997958347	0.0	0.7851128678332192	-0.8741550448350366	0.0	0.7735091836644514	-0.8658059934874502	0.0	0.7378296063696752	-0.8472971309068456	0.0	0.816143886370151	-0.5180971512794386	0.0	0.8559676384311473	-0.4569357371180148	0.0	0.856678396618685	-0.50285627192365	0.0	0.807952370168694	-0.52687233063438	0.0	0.8612108224733619	-0.5588440217715057	0.0	0.915900767514521	-0.5230004713662724	0.0	0.8054981291333096	-0.5274636999676311	0.0	0.8542952236034373	-0.5655230764293678	0.0	0.9083450953631994	-0.5269247459247435	0.0
65	2.180379746835443	0.7895937317469398	-0.6483102485295964	0.0	0.7914256745055356	-0.6483238162260424	0.0	0.823186528100419	-0.7499216852919416	0.0	0.7716517028515756	-0.8428556853293123	0.0	0.8017172002005777	-0.8599049853917579	0.0	0.7927111575538418	-0.8627763019599342	0.0	0.7578604152985853	-0.8529871545477073	0.0	0.789738871012926	-0.6475767150285792	0.0	0.8023220913391735	-0.7472580085528312	0.0	0.7479251131691654	-0.8264493736647521	0.0	0.7822507369405173	-0.8569630817422367	0.0	0.7722208971675772	-0.8482514676301031	0.0	0.7361954172906763	-0.832582306510794	0.0	0.8097534429192391	-0.5065430614034856	0.0	0.8460764241628908	-0.44507888930531075	0.0	0.8495372689890982	-0.4900598639122592	0.0	0.800458633678107	-0.51672451527383	0.0	0.8417637152430504	-0.557805240213948	0.0	0.895252467993279	-0.5377435203045109	0.0	0.8006998389809712	-0.5182771438434087	0.0	0.8431548639219602	-0.5646537858200342	0.0	0.894210363758517	-0.5458504947740074	0.0
66	2.213924050632911	0.7923210541959379	-0.6290063907956708	0.0	0.7937639532054231	-0.6284494426392562	0.0	0.8257794665536952	-0.7288961746305412	0.0	0.7713956856411546	-0.8231344753935307	0.0	0.8017520673527504	-0.8389407463824654	0.0	0.7927451502517637	-0.8420512695221675	0.0	0.7579139446817854	-0.832200524863076	0.0	0.7932559863185109	-0.6276574052883341	0.0	0.806346403868113	-0.726306221668402	0.0	0.7485156246592946	-0.8046902603289654	0.0	0.7808359931573808	-0.8335751460135257	0.0	0.7715222108108717	-0.8240329510422326	0.0	0.7356869793561107	-0.8113685950310401	0.0	0.80616661844764	-0.4868679452783897	0.0	0.8395931012336297	-0.42643189090166916	0.0	0.8453445313040446	-0.4694128020920304	0.0	0.7955179446490871	-0.4992231343867437	0.0	0.820986605912963	-0.5503663560692589	0.0	0.8701121259427413	-0.5512137409576123	0.0	0.7985251001921941	-0.5003478717015617	0.0	0.8295935406115136	-0.5548159504951113	0.0	0.8756339294717999	-0.5575860773291278	0.0
67	2.2474683544303797	0.7958678450609473	-0.6043158717121804	0.0	0.7967225573805518	-0.6032212476115623	0.0	0.8275754880893145	-0.7036015864896195	0.0	0.7723892662824388	-0.7998008124903616	0.0	0.8037371621130792	-0.8165094963234371	0.0	0.7946111030300134	-0.8195273138283368	0.0	0.7592889368192083	-0.8090277609084254	0.0	0.7974149537127352	-0.6023939179188708	0.0	0.8100124627620089	-0.7010339146990311	0.0	0.7505055521790486	-0.7794082177538112	0.0	0.7812195472990106	-0.8080533204257364	0.0	0.7721784054364852	-0.7978995344888206	0.0	0.73682767016618	-0.7868639232609718	0.0	0.8044533242128419	-0.46189033414980774	0.0	0.8354480284404745	-0.4026877302007588	0.0	0.8431742512526135	-0.44334530679557577	0.0	0.792528454574453	-0.4763689420707077	0.0	0.8013444447498234	-0.5353265694820946	0.0	0.8413014178927917	-0.5574216927562546	0.0	0.7980370069378443	-0.47662206714202127	0.0	0.8154785040467807	-0.5369589795468914	0.0	0.852336495087052	-0.5595459751584257	0.0
68	2.281012658227848	0.7997638890666009	-0.5773678973861235	0.0	0.8000111862631905	-0.575930679895995	0.0	0.8282194117541194	-0.6771497756065543	0.0	0.7745412139571135	-0.7756021390792157	0.0	0.806725157654744	-0.7953914421084917	0.0	0.7973268806961168	-0.7980399042129203	0.0	0.7618651464639737	-0.7857778460031364	0.0	0.8016869220326732	-0.5750929235754144	0.0	0.8127759289959352	-0.674548037490583	0.0	0.7540907519774482	-0.7539175580300332	0.0	0.7835151555558595	-0.783615931505248	0.0	0.7748278108047516	-0.7733654548029545	0.0	0.7399487533540301	-0.7623134694490141	0.0	0.8036530778856458	-0.43481289518848887	0.0	0.8327852079384827	-0.3761806550977998	0.0	0.8420336115655375	-0.4148755632077505	0.0	0.7909585338385533	-0.4505290326694629	0.0	0.7848519032846061	-0.5131967176419687	0.0	0.8111492402268033	-0.5524972275277438	0.0	0.7981907886418338	-0.45018681265541644	0.0	0.8022883975233219	-0.5126619315528747	0.0	0.825724272759233	-0.5505205657021993	0.0
69	2.3145569620253164	0.8034402150297071	-0.5507917140736658	0.0	0.803254889678438	-0.5493127887288219	0.0	0.8275614907895938	-0.6518949911718274	0.0	0.7776601670399235	-0.7527169884303735	0.0	0.8097625121561582	-0.7771456095536484	0.0	0.8000760142841877	-0.7792260978842994	0.0	0.7653437190922673	-0.7640534764433541	0.0	0.8054447859638731	-0.5484451562941884	0.0	0.8142407982719803	-0.6492136741613104	0.0	0.759413965309592	-0.7307885917855381	0.0	0.7877856484953566	-0.7623333628958107	0.0	0.7797447404174089	-0.7525010080698384	0.0	0.7452148777132362	-0.7403142731693981	0.0	0.8029934795897863	-0.4083952253722601	0.0	0.830963926351186	-0.3492250224413019	0.0	0.8412144741351777	-0.3867215479594918	0.0	0.7902707662869395	-0.4240099842955432	0.0	0.7723932035770176	-0.4860409577081283	0.0	0.7827257870692653	-0.5358186941078881	0.0	0.7981823428737779	-0.4236667068965525	0.0	0.7908663901063805	-0.48405376197352573	0.0	0.7984222095796315	-0.5311013804308559	0.0
70	2.348101265822785	0.8064858962406171	-0.5265122875905438	0.0	0.806090562385954	-0.5252460602347635	0.0	0.8257982064108779	-0.6293308851539452	0.0	0.7815705005914985	-0.7323175559628881	0.0	0.812646206292461	-0.762043581398083	0.0	0.8027311257858362	-0.7634421121749058	0.0	0.7694370076361917	-0.7446338707015772	0.0	0.8082633121576422	-0.52428457310819	0.0	0.8143069172442952	-0.6265625021603738	0.0	0.7664431859138902	-0.7114259091249354	0.0	0.7938545980020444	-0.7452052890756199	0.0	0.7866649838160399	-0.7362065961545433	0.0	0.7525490437801748	-0.7223041966622604	0.0	0.8020246128876317	-0.38452436153677066	0.0	0.8295394514816061	-0.3237942905620578	0.0	0.8404102344361113	-0.3609049422166229	0.0	0.7898987260147191	-0.3987726404127633	0.0	0.7636942350371232	-0.4567261961203894	0.0	0.7585826405783269	-0.50960914696294	0.0	0.7977036772150075	-0.3989901489900711	0.0	0.7818163592504452	-0.45353949449357095	0.0	0.7739287682610942	-0.5032608463647968	0.0
